<svg width="64" height="64" viewBox="0 0 64 64" fill="none" xmlns="http://www.w3.org/2000/svg">
<g clip-path="url(#clip0_16_1043)">
<path d="M31.4149 6.64176C32.7408 8.50476 32.6271 9.82188 32.6271 9.82188L31.8011 9.14215L31.0649 8.5493L29.5089 7.24265L28.1665 6.0456C28.1665 6.0456 27.4944 5.43575 27.2355 5.24096C26.9767 5.04618 27.2959 4.33656 27.8693 4.0897C28.4428 3.84285 28.9934 4.296 28.9934 4.296C28.9934 4.296 30.0891 4.77876 31.4149 6.64176Z" fill="#532638"/>
<path d="M38.4291 3.89582C32.7746 7.38571 31.0522 9.82484 28.8651 14.4707C28.8651 14.4707 42.1435 19.9538 43.5465 19.9538C44.9494 19.9538 48.4176 19.9381 51.2873 17.7768C54.1571 15.6156 56.734 11.3605 58.9463 6.41961C54.2588 2.90623 52.6102 1.51952 46.504 1.43358C43.2789 1.59531 40.9855 2.44772 38.4291 3.89582Z" fill="#27E62B" fill-opacity="0.75"/>
<path d="M44.9586 5.61494C44.8795 6.58715 43.9399 7.30318 42.8599 7.21422C41.7798 7.12527 40.9685 6.26503 41.0476 5.29282C41.1267 4.3206 42.0663 3.60458 43.1463 3.69353C44.2263 3.78249 45.0377 4.64273 44.9586 5.61494Z" fill="#F6F4E9"/>
<path d="M55.2727 36.1558C55.2727 49.3529 44.6622 60 31.6364 60C18.6106 60 8 49.3529 8 36.1558C8 22.9587 18.6106 12.3116 31.6364 12.3116C44.6622 12.3116 55.2727 22.9587 55.2727 36.1558Z" fill="#532638" stroke="#532638" stroke-width="8"/>
<path d="M16.4786 46.5485C16.3518 46.4325 17.3183 49.7458 19.0602 52.2742C20.802 54.8026 23.1169 55.4806 23.1169 55.4806" stroke="#6A1E23" stroke-width="7" stroke-linecap="round"/>
<path d="M30.0539 47.3766C29.5584 49.974 30.0539 55.0812 31.6363 56.5194" stroke="#591D2E" stroke-width="8" stroke-linecap="round"/>
<path d="M50.3377 43.0129C50.1299 47.4805 48.7793 51.0129 48.052 52.0519" stroke="#591D2E" stroke-width="8" stroke-linecap="round"/>
<path d="M17.5065 14.3377C13.5465 16.9576 10.5207 20.052 8.58864 24.8312C6.65659 29.6105 11.6578 36.5966 18.3549 40.104C24.8094 42.9961 28.4258 43.3027 34.8744 42.9092C40.5032 42.3965 44.8484 41.1429 49.0042 37.9221C53.1601 34.7014 56.6925 28.3637 54.7185 24.3118C52.7445 20.2598 50.4588 17.3507 45.9912 14.4416C41.5237 11.5325 36.5195 10.1819 31.238 10.1819C25.7748 10.2122 22.0608 11.3247 17.5065 14.3377Z" fill="#FCF3D8"/>
<path d="M19.219 15.8833C15.7608 18.0367 13.1183 20.5801 11.431 24.5083C9.74378 28.4365 14.1114 34.1786 19.9599 37.0614C25.5966 39.4385 28.7548 39.6906 34.3863 39.3671C39.302 38.9457 43.0967 37.9153 46.7259 35.2681C50.3552 32.6208 53.4402 27.4117 51.7162 24.0813C49.9923 20.7509 47.9962 18.3598 44.0947 15.9687C40.1932 13.5777 35.8231 12.4675 31.2107 12.4675C26.4397 12.4924 23.1963 13.4069 19.219 15.8833Z" fill="#E59A63"/>
<ellipse cx="20.8596" cy="18.0473" rx="2.60163" ry="1.03896" transform="rotate(-10.1591 20.8596 18.0473)" fill="#401D30"/>
<ellipse cx="42.6958" cy="17.9126" rx="2.60163" ry="1.03896" transform="rotate(7.57902 42.6958 17.9126)" fill="#401D30"/>
<ellipse cx="17.5065" cy="32.6234" rx="3.11688" ry="1.66234" fill="#FB6A76"/>
<ellipse cx="45.9741" cy="32.6234" rx="3.11688" ry="1.66234" fill="#FB6A76"/>
<circle cx="21.039" cy="25.974" r="4.77922" fill="#401D30"/>
<ellipse cx="19.8187" cy="24.2184" rx="1.93203" ry="1.6581" fill="#F6F4E9"/>
<circle cx="42.2337" cy="25.974" r="4.77922" fill="#401D30"/>
<ellipse cx="41.0136" cy="24.2184" rx="1.93203" ry="1.6581" fill="#F6F4E9"/>
<path d="M28.5195 27.8441C28.7239 31.2168 34.7533 31.1204 34.7533 27.8441" stroke="#532638" stroke-width="7" stroke-linecap="round"/>
<circle cx="31.6364" cy="35.9481" r="25.7662" fill="#BE5133"/>
<path d="M17.5041 14.3334C13.5393 16.9505 10.5099 20.0418 8.57548 24.816C6.6411 29.5903 11.6484 36.5691 18.3535 40.0729C24.8158 42.962 28.4366 43.2683 34.8929 42.8752C40.5285 42.363 44.879 41.1108 49.0398 37.8933C53.2007 34.6759 56.7374 28.3448 54.761 24.2971C52.7846 20.2493 50.4961 17.3433 46.0232 14.4372C41.5503 11.5311 36.5401 10.1819 31.2522 10.1819C25.7824 10.2121 22.0639 11.3236 17.5041 14.3334Z" fill="#FCF3D8"/>
<path d="M19.219 15.8833C15.7608 18.0367 13.1183 20.5801 11.431 24.5083C9.74378 28.4365 14.1114 34.1786 19.9599 37.0614C25.5966 39.4385 28.7548 39.6906 34.3863 39.3671C39.302 38.9457 43.0967 37.9153 46.7259 35.2681C50.3552 32.6208 53.4402 27.4117 51.7162 24.0813C49.9923 20.7509 47.9962 18.3598 44.0947 15.9687C40.1932 13.5777 35.8231 12.4675 31.2107 12.4675C26.4397 12.4924 23.1963 13.4069 19.219 15.8833Z" fill="#E59A63"/>
<ellipse cx="20.8596" cy="18.0473" rx="2.60163" ry="1.03896" transform="rotate(-10.1591 20.8596 18.0473)" fill="#401D30"/>
<ellipse cx="42.6958" cy="17.9126" rx="2.60163" ry="1.03896" transform="rotate(7.57902 42.6958 17.9126)" fill="#401D30"/>
<ellipse cx="17.5065" cy="32.6234" rx="3.11688" ry="1.66234" fill="#FB6A76"/>
<ellipse cx="45.9741" cy="32.6234" rx="3.11688" ry="1.66234" fill="#FB6A76"/>
<circle cx="21.039" cy="25.974" r="4.77922" fill="#401D30"/>
<ellipse cx="19.8187" cy="24.2184" rx="1.93203" ry="1.6581" fill="#F6F4E9"/>
<circle cx="42.2337" cy="25.974" r="4.77922" fill="#401D30"/>
<ellipse cx="41.0136" cy="24.2184" rx="1.93203" ry="1.6581" fill="#F6F4E9"/>
<path d="M30.051 57.251C29.2031 57.1427 27.1456 51.3332 28.1808 46.9653C29.0953 46.2049 29.5814 46.4465 29.7393 47.3809C28.9371 52.4654 29.7983 53.9485 31.4016 56.5238C31.1486 57.2583 30.8988 57.3594 30.051 57.251Z" fill="#6A1E23"/>
<path d="M50.2318 42.8175C50.3278 41.8777 48.4664 41.0183 48.5695 42.8175C48.6725 44.6167 46.848 50.8308 46.1799 51.7526C45.5117 52.6744 46.5954 53.4151 47.6344 52.6876C48.6734 51.9602 50.1358 43.7573 50.2318 42.8175Z" fill="#7A2826"/>
<path d="M15.4285 46.4331C15.6597 45.3394 16.5713 45.1863 16.883 46.1214C17.1947 47.0565 18.0391 49.6875 19.5843 52.1473C21.0389 53.8097 21.9184 54.0018 23.4285 54.8487C23.6821 55.3459 23.3246 55.9916 22.909 56.0954C22.4934 56.1993 20.7272 55.3681 19.4804 54.1214C18.6177 53.1247 18.1291 52.648 17.2986 51.1084C16.4121 49.4008 15.95 48.417 15.4285 46.4331Z" fill="#6A1E23"/>
<path d="M28.9687 26.8427L28.9499 26.8265C28.7688 26.6733 28.4509 26.6897 28.2307 26.7778C28.1385 26.8147 28.0594 26.8781 28.0034 26.9601L27.9935 26.9745C27.9301 27.0672 27.8961 27.177 27.8961 27.2895V27.4286C27.8961 27.7031 27.9485 27.9751 28.0505 28.23L28.1039 28.3636L28.2009 28.5333C28.4119 28.9026 28.6861 29.239 29.004 29.5216C29.2998 29.7845 29.6387 30.0039 30.0004 30.1647C30.2591 30.2796 30.5297 30.3657 30.8073 30.4212L31.0198 30.4637C31.2917 30.5181 31.5682 30.5455 31.8454 30.5455H31.8613C32.1949 30.5455 32.5273 30.5045 32.851 30.4236C33.0798 30.3664 33.3032 30.2895 33.5187 30.1937L33.7368 30.0968C33.9975 29.9809 34.2399 29.8278 34.4565 29.6422C34.7215 29.415 34.9439 29.1425 35.1135 28.8374L35.2229 28.6404C35.3249 28.4567 35.4025 28.2604 35.4534 28.0565L35.5161 27.8059C35.5611 27.6259 35.5656 27.4381 35.5292 27.2561L35.5043 27.1317C35.4886 27.0533 35.4577 26.9788 35.4134 26.9123C35.3233 26.7772 35.1833 26.6834 35.0241 26.6516L34.9844 26.6436C34.8346 26.6137 34.6791 26.6345 34.5425 26.7028L34.509 26.7196C34.3978 26.7752 34.3076 26.8653 34.252 26.9765C34.2399 27.0008 34.2295 27.0259 34.2209 27.0517L34.1859 27.1565C34.1488 27.2679 34.1299 27.3845 34.1299 27.5019C34.1299 27.5912 34.1189 27.6802 34.0973 27.7668L34.0899 27.7961C34.0477 27.965 33.9722 28.1237 33.8678 28.2629C33.7664 28.398 33.6398 28.5122 33.495 28.5991L33.3814 28.6673C33.2574 28.7417 33.1256 28.8023 32.9884 28.848L32.788 28.9148C32.6438 28.9629 32.4962 28.9996 32.3463 29.0245C32.0821 29.0686 31.813 29.0759 31.5468 29.0463L31.3353 29.0228C31.1213 28.9991 30.911 28.9488 30.7093 28.8731L30.6311 28.8438C30.335 28.7328 30.0661 28.5596 29.8425 28.336C29.6547 28.1482 29.5021 27.9281 29.3922 27.6862L29.0788 26.9968C29.0525 26.9388 29.0164 26.8849 28.9687 26.8427Z" fill="#401E2B"/>
</g>
<defs>
</defs>
</svg>
